<?xml version="1.0" encoding="utf-8"?>
<!-- Generator: Adobe Adobe Illustrator 24.2.0, SVG Export Plug-In . SVG Version: 6.00 Build 0)  -->
<svg version="1.1" xmlns="http://www.w3.org/2000/svg" xmlns:xlink="http://www.w3.org/1999/xlink" x="0px" y="0px" width="1000px"
	 height="1000px" viewBox="0 0 1000 1000" style="enable-background:new 0 0 1000 1000;" xml:space="preserve">
<style type="text/css">
	.st0{fill:#41CC69;}
	.st1{fill:#50EB7C;}
	.st2{fill:#BFFFD2;}
	.st3{fill:#46BD68;}
	.st4{fill:#2A8544;}
	.st5{fill:#1D6631;}
	.st6{display:none;}
	.st7{display:inline;fill:#1A572A;}
	.st8{fill:#1A572A;}
	.st9{fill:#3C9E58;}
	.st10{fill:none;stroke:#000000;stroke-miterlimit:10;}
	.st11{fill:#237A3C;}
	.st12{fill:#329C50;}
	.st13{fill:#104720;}
	.st14{fill:#267A3E;}
	.st15{fill:#FFFFFF;}
	.st16{fill:#34455D;}
	.st17{fill:url(#SVGID_1_);}
	.st18{fill:#34B358;}
	.st19{fill:url(#SVGID_2_);}
	.st20{fill:url(#SVGID_3_);}
	.st21{fill:#175227;}
	.st22{fill:#96FFB4;}
	.st23{fill:#335C3F;}
	.st24{fill:#FFDEBA;}
	.st25{fill:#0CAB5E;}
	.st26{fill:#097943;}
	.st27{fill:#FFAC54;}
	.st28{fill:#FF9626;}
	.st29{fill:#5EA1DB;}
	.st30{fill:#406D94;}
	.st31{fill:#075E34;}
	.st32{fill:#D98F41;}
	.st33{fill:#325675;}
	.st34{fill:#064F2C;}
	.st35{fill:#B56B1B;}
	.st36{fill:#264259;}
</style>
<g id="Layer_1">
</g>
<g id="Text">
	<path class="st23" d="M933.01,697.47V306.81c0-33.83-18.05-65.09-47.35-82.01L547.35,29.48c-29.3-16.92-65.4-16.92-94.7,0
		L114.34,224.8c-29.3,16.92-47.35,48.18-47.35,82.01v390.65c0,33.83,18.05,65.09,47.35,82.01L452.65,974.8
		c29.3,16.92,65.4,16.92,94.7,0l338.32-195.33C914.97,762.56,933.01,731.3,933.01,697.47z"/>
	<g>
		<path class="st3" d="M147.93,761.83l310.18,174.92c28.82,16.25,64.12,15.9,92.61-0.94L857.3,754.66
			c28.48-16.83,45.83-47.58,45.49-80.67l-3.6-356.09c-0.17-16.54-4.74-32.42-12.88-46.18L113.69,728.28
			C121.82,742.04,133.52,753.71,147.93,761.83z"/>
		<path class="st26" d="M541.89,63.24c-28.82-16.25-64.12-15.9-92.61,0.94L142.7,245.34c-28.48,16.83-45.83,47.58-45.49,80.67
			l3.6,356.09c0.17,16.54,4.74,32.41,12.87,46.18l772.62-456.56c-8.13-13.76-19.83-25.42-34.24-33.55L541.89,63.24z"/>
	</g>
	<g>
		<path class="st5" d="M889.75,722.31c7.08-14.51,14.59-10.34,15.73-37.72l-3.5-361.13c-0.17-16.54-7.52-37.97-15.66-51.74L500,500
			l389.79,222.24L889.75,722.31z"/>
	</g>
	<g>
		<path class="st8" d="M889.75,722.31c-4.91,8.78-11.61,19.58-32.47,33.14c-74.64,48.52-306.56,180.37-306.56,180.37
			c-15.74,9.3-32.1,12.68-50.72,12.88l2.57-451.51"/>
	</g>
	<g>
		<rect x="299.76" y="276.85" class="st15" width="117.36" height="446.29"/>
		<rect x="582.89" y="276.85" class="st15" width="117.36" height="446.29"/>
		
			<rect x="453.06" y="417.12" transform="matrix(6.123234e-17 -1 1 6.123234e-17 2.695079e-03 1000.0027)" class="st15" width="93.89" height="165.77"/>
	</g>
</g>
</svg>
